<?xml version="1.0" encoding="utf-8"?>
<!-- Generator: Adobe Illustrator 24.1.0, SVG Export Plug-In . SVG Version: 6.00 Build 0)  -->
<svg version="1.1" id="Laag_1" xmlns="http://www.w3.org/2000/svg" xmlns:xlink="http://www.w3.org/1999/xlink" x="0px" y="0px"
	 viewBox="0 0 799.65 799.65" style="enable-background:new 0 0 799.65 799.65;" xml:space="preserve">
<style type="text/css">
	.st0{clip-path:url(#SVGID_2_);fill:url(#SVGID_3_);}
	.st1{fill:#384E71;}
</style>
<g>
	<g>
		<defs>
			<path id="SVGID_1_" d="M537.45,407.51h52.08v-20.49h-52.08V407.51z M352.87,346.04l-23.9,74.28l-23.9-74.28h-25.61l36.71,107.57
				h25.61l36.71-107.57H352.87z M393.46,453.61h24.76V346.04h-24.76V453.61z M458,369.95h11.95c4.1,0,7.91,0.76,11.44,2.3
				c3.53,1.54,6.6,3.62,9.22,6.23c2.61,2.62,4.66,5.78,6.14,9.47c1.48,3.7,2.22,7.66,2.22,11.87c0,4.33-0.75,8.31-2.22,11.95
				c-1.48,3.65-3.53,6.78-6.14,9.39c-2.62,2.62-5.7,4.7-9.22,6.23c-3.53,1.54-7.34,2.3-11.44,2.3H458V369.95z M433.25,346.04v107.57
				h36.71c7.51,0,14.51-1.4,21-4.18c6.49-2.79,12.18-6.63,17.07-11.52c4.89-4.89,8.73-10.59,11.53-17.08
				c2.79-6.49,4.18-13.49,4.18-21c0-7.51-1.39-14.51-4.18-21c-2.79-6.49-6.63-12.18-11.53-17.08c-4.89-4.89-10.59-8.73-17.07-11.52
				c-6.49-2.79-13.49-4.19-21-4.19H433.25z M631.41,346.04l-28.17,19.64l11.95,18.78l11.1-7.68v76.83h24.76V346.04H631.41z
				 M86.99,349.37c-6.43,2.79-12.04,6.66-16.82,11.61c-4.78,4.95-8.56,10.75-11.35,17.42c-2.79,6.66-4.19,13.8-4.19,21.42
				c0,7.74,1.4,14.91,4.19,21.52c2.79,6.6,6.57,12.38,11.35,17.33c4.78,4.95,10.39,8.83,16.82,11.61
				c6.43,2.79,13.29,4.18,20.58,4.18c6.6,0,12.66-1.05,18.18-3.16c5.52-2.1,10.39-4.89,14.6-8.37c4.21-3.47,7.74-7.54,10.59-12.21
				c2.84-4.67,4.89-9.56,6.15-14.68l-25.61-1.71c-1.26,4.33-3.84,8.11-7.77,11.36c-3.93,3.24-9.3,4.86-16.13,4.86
				c-3.87,0-7.51-0.77-10.93-2.3c-3.41-1.54-6.4-3.67-8.96-6.4c-2.56-2.73-4.58-5.97-6.06-9.73c-1.48-3.75-2.22-7.85-2.22-12.29
				c0-4.44,0.74-8.53,2.22-12.29c1.48-3.76,3.5-7,6.06-9.73c2.56-2.73,5.55-4.87,8.96-6.41c3.42-1.54,7.06-2.31,10.93-2.31
				c3.19,0,6.06,0.46,8.62,1.37c2.56,0.91,4.81,2.11,6.75,3.59c1.93,1.48,3.53,3.19,4.78,5.12c1.25,1.93,2.22,3.98,2.9,6.15
				l25.61-1.71c-1.25-5.12-3.3-10.01-6.15-14.68c-2.85-4.67-6.35-8.74-10.5-12.21c-4.16-3.47-8.94-6.26-14.34-8.36
				c-5.41-2.11-11.3-3.16-17.67-3.16C100.28,345.19,93.42,346.58,86.99,349.37 M215.31,428.25c-3.42-1.54-6.4-3.67-8.96-6.4
				c-2.56-2.73-4.58-5.97-6.06-9.73c-1.48-3.75-2.22-7.85-2.22-12.29c0-4.44,0.74-8.53,2.22-12.29c1.48-3.76,3.5-7,6.06-9.73
				c2.56-2.73,5.55-4.87,8.96-6.41c3.42-1.54,7.06-2.3,10.93-2.3c3.87,0,7.51,0.77,10.93,2.3c3.42,1.54,6.41,3.67,8.96,6.41
				c2.56,2.73,4.58,5.97,6.06,9.73c1.48,3.76,2.22,7.85,2.22,12.29c0,4.44-0.74,8.54-2.22,12.29c-1.48,3.76-3.5,7-6.06,9.73
				c-2.56,2.73-5.55,4.87-8.96,6.4c-3.41,1.54-7.06,2.3-10.93,2.3C222.36,430.56,218.73,429.79,215.31,428.25 M205.66,349.37
				c-6.43,2.79-12.04,6.66-16.82,11.61c-4.78,4.95-8.56,10.75-11.35,17.42c-2.79,6.66-4.18,13.8-4.18,21.42
				c0,7.74,1.39,14.91,4.18,21.51c2.79,6.6,6.57,12.38,11.35,17.33c4.78,4.95,10.39,8.83,16.82,11.61
				c6.43,2.79,13.29,4.18,20.57,4.18c7.28,0,14.14-1.39,20.58-4.18c6.43-2.79,12.04-6.66,16.82-11.61
				c4.78-4.95,8.56-10.73,11.35-17.33c2.79-6.6,4.19-13.77,4.19-21.51c0-7.63-1.4-14.77-4.19-21.42
				c-2.79-6.66-6.57-12.47-11.35-17.42c-4.78-4.95-10.39-8.83-16.82-11.61c-6.44-2.79-13.29-4.18-20.58-4.18
				C218.95,345.19,212.09,346.58,205.66,349.37 M693.96,394.44c-2.96-3.01-4.44-6.91-4.44-11.69c0-4.78,1.48-8.67,4.44-11.7
				c2.96-3.01,6.6-4.52,10.93-4.52c4.33,0,7.97,1.51,10.93,4.52c2.96,3.02,4.44,6.92,4.44,11.7c0,4.78-1.48,8.68-4.44,11.69
				c-2.96,3.02-6.6,4.53-10.93,4.53C700.56,398.97,696.91,397.46,693.96,394.44 M688.49,348.09c-4.9,1.94-9.11,4.58-12.63,7.94
				c-3.53,3.36-6.26,7.32-8.2,11.87c-1.93,4.55-2.9,9.51-2.9,14.85c0,5.58,1.08,10.7,3.24,15.37c2.16,4.67,5.06,8.65,8.71,11.95
				c3.64,3.3,7.82,5.81,12.55,7.51c4.72,1.71,9.65,2.34,14.77,1.88l-23.05,34.15h25.61l28.17-41.84c1.93-2.73,3.64-5.63,5.12-8.7
				c1.25-2.62,2.42-5.69,3.5-9.22c1.08-3.53,1.62-7.23,1.62-11.1c0-5.35-0.97-10.3-2.9-14.85c-1.94-4.55-4.67-8.51-8.2-11.87
				c-3.53-3.36-7.77-6-12.72-7.94c-4.95-1.93-10.39-2.9-16.31-2.9C698.85,345.19,693.39,346.15,688.49,348.09"/>
		</defs>
		<clipPath id="SVGID_2_">
			<use xlink:href="#SVGID_1_"  style="overflow:visible;"/>
		</clipPath>
		
			<linearGradient id="SVGID_3_" gradientUnits="userSpaceOnUse" x1="-19.2601" y1="692.0557" x2="-16.2791" y2="692.0557" gradientTransform="matrix(122.2824 122.2824 122.2824 -122.2824 -82055.4922 87196.9844)">
			<stop  offset="0" style="stop-color:#B6202B"/>
			<stop  offset="0.0576" style="stop-color:#C32B34"/>
			<stop  offset="0.1641" style="stop-color:#D43941"/>
			<stop  offset="0.2969" style="stop-color:#DF434A"/>
			<stop  offset="0.4831" style="stop-color:#E6484F"/>
			<stop  offset="1" style="stop-color:#E84A50"/>
		</linearGradient>
		<polygon class="st0" points="399.82,0 799.65,399.82 399.82,799.65 0,399.82 		"/>
	</g>
	<g>
		<path class="st1" d="M441.55,478.83c6.16,0,11.79,1.01,16.88,3.02c5.09,2.02,9.46,4.72,13.11,8.11c3.64,3.39,6.47,7.39,8.49,11.97
			c2.01,4.59,3.02,9.46,3.02,14.62c0,6.67-1.17,12.26-3.49,16.79c-2.33,4.53-4.9,8.2-7.73,11.03c-2.83,2.83-6.63,5.5-11.41,8.01
			l26.41,45.27h-30.18l-21.69-39.61h-14.14v39.61h-27.35V478.83H441.55z M441.55,531.65c4.78,0,8.49-1.26,11.13-3.77
			c2.64-2.51,3.96-5.66,3.96-9.43c0-3.77-1.32-6.91-3.96-9.43c-2.64-2.52-6.35-3.77-11.13-3.77h-20.74v26.4H441.55z"/>
		<rect x="501.84" y="478.83" class="st1" width="27.35" height="118.82"/>
		<path class="st1" d="M545.18,511.84c0-4.53,0.97-8.83,2.92-12.92c1.95-4.08,4.75-7.67,8.39-10.75c3.65-3.08,8.08-5.57,13.3-7.45
			c5.21-1.89,11.16-2.83,17.82-2.83c6.42,0,12.17,0.95,17.26,2.83c5.09,1.88,9.43,4.53,13.02,7.92c3.58,3.39,6.35,7.39,8.29,11.97
			c1.95,4.59,2.92,9.59,2.92,15l-26.4,1.88c0-4.78-1.32-8.49-3.96-11.13c-2.64-2.64-6.35-3.96-11.13-3.96
			c-4.27,0-7.7,1.17-10.28,3.49c-2.58,2.33-3.87,4.94-3.87,7.83s1.44,5.09,4.34,6.6c2.89,1.51,6.51,2.92,10.84,4.25
			c4.34,1.32,9.02,2.73,14.05,4.24c5.03,1.51,9.72,3.65,14.05,6.42c4.33,2.76,7.95,6.41,10.84,10.93
			c2.89,4.53,4.34,10.37,4.34,17.54c0,4.78-0.98,9.28-2.92,13.49c-1.95,4.21-4.81,7.89-8.58,11.03c-3.77,3.15-8.42,5.66-13.96,7.54
			c-5.53,1.89-11.82,2.83-18.86,2.83c-6.79,0-12.89-0.94-18.29-2.83c-5.41-1.88-9.97-4.55-13.67-8.02
			c-3.71-3.45-6.54-7.54-8.49-12.25c-1.95-4.72-2.92-9.91-2.92-15.56l26.4-1.89c0,10.69,5.66,16.03,16.97,16.03
			c5.28,0,9.27-1.23,11.98-3.68c2.7-2.45,4.05-5.31,4.05-8.58c0-3.02-1.45-5.34-4.34-6.98c-2.89-1.63-6.5-3.14-10.84-4.53
			c-4.34-1.38-9.02-2.83-14.05-4.34c-5.03-1.51-9.72-3.61-14.05-6.32c-4.34-2.7-7.96-6.26-10.84-10.65
			C546.62,524.6,545.18,518.88,545.18,511.84"/>
		<polygon class="st1" points="712.97,597.65 674.31,544.84 674.31,597.65 646.96,597.65 646.96,478.84 674.31,478.84 
			674.31,529.76 710.14,478.84 741.26,478.84 699.39,537.3 744.09,597.65 		"/>
		<polygon class="st1" points="98.07,276.68 58.61,202.46 87.74,202.46 111.79,249.44 135.66,202.46 164.79,202.46 125.32,276.68 
			125.32,320.84 98.07,320.84 		"/>
		<path class="st1" d="M272.67,261.65c0,8.52-1.54,16.41-4.61,23.68c-3.07,7.26-7.23,13.63-12.5,19.07
			c-5.26,5.45-11.44,9.71-18.51,12.78c-7.08,3.07-14.63,4.61-22.65,4.61c-8.02,0-15.57-1.53-22.64-4.61
			c-7.08-3.07-13.25-7.33-18.51-12.78c-5.26-5.45-9.43-11.81-12.5-19.07c-3.07-7.26-4.6-15.16-4.6-23.68
			c0-8.39,1.53-16.26,4.6-23.58c3.07-7.33,7.23-13.72,12.5-19.17c5.26-5.45,11.43-9.71,18.51-12.78c7.08-3.07,14.63-4.61,22.64-4.61
			c8.02,0,15.57,1.54,22.65,4.61c7.07,3.07,13.25,7.33,18.51,12.78c5.26,5.45,9.43,11.83,12.5,19.17
			C271.13,245.39,272.67,253.26,272.67,261.65 M245.42,261.65c0-4.88-0.82-9.39-2.44-13.53c-1.63-4.13-3.85-7.71-6.67-10.71
			c-2.82-3.01-6.11-5.36-9.86-7.05c-3.76-1.69-7.77-2.53-12.03-2.53c-4.26,0-8.27,0.84-12.03,2.53c-3.76,1.69-7.05,4.04-9.87,7.05
			c-2.82,3-5.04,6.58-6.67,10.71c-1.63,4.13-2.44,8.65-2.44,13.53c0,4.89,0.81,9.4,2.44,13.53c1.63,4.13,3.85,7.71,6.67,10.71
			c2.82,3.01,6.11,5.36,9.87,7.05c3.76,1.69,7.77,2.53,12.03,2.53c4.26,0,8.27-0.84,12.03-2.53c3.76-1.69,7.05-4.04,9.86-7.05
			c2.82-3,5.04-6.58,6.67-10.71C244.6,271.04,245.42,266.53,245.42,261.65"/>
		<path class="st1" d="M310.33,202.45v70.47c0,7.14,1.94,12.68,5.82,16.63c3.88,3.95,9.14,5.92,15.79,5.92
			c6.64,0,11.9-1.97,15.78-5.92c3.88-3.95,5.83-9.49,5.83-16.63v-70.47h27.25v70.47c0,7.27-1.19,13.91-3.57,19.92
			c-2.38,6.01-5.7,11.15-9.96,15.41c-4.26,4.26-9.4,7.58-15.41,9.96c-6.02,2.38-12.66,3.57-19.92,3.57
			c-7.27,0-13.91-1.19-19.92-3.57c-6.01-2.38-11.15-5.7-15.41-9.96c-4.26-4.26-7.58-9.4-9.96-15.41
			c-2.38-6.01-3.57-12.65-3.57-19.92v-70.47H310.33z"/>
		<path class="st1" d="M441.38,202.2c6.13,0,11.74,1,16.82,3c5.07,2.01,9.42,4.7,13.06,8.08c3.63,3.38,6.45,7.36,8.46,11.93
			c2,4.57,3,9.43,3,14.57c0,6.64-1.16,12.21-3.48,16.72c-2.32,4.51-4.89,8.17-7.71,10.99c-2.82,2.82-6.61,5.48-11.37,7.99
			l26.31,45.1h-30.07l-21.61-39.46H420.7v39.46h-27.25V202.2H441.38z M441.38,254.81c4.76,0,8.45-1.25,11.09-3.76
			c2.63-2.51,3.94-5.64,3.94-9.4c0-3.76-1.31-6.89-3.94-9.4c-2.63-2.5-6.33-3.76-11.09-3.76H420.7v26.31H441.38z"/>
		<rect x="514.93" y="247.62" class="st1" width="226.34" height="24.76"/>
		<path class="st1" d="M338.7,550.62h26.31v-24.76h-61.16C316.23,532.95,327.96,541.13,338.7,550.62"/>
		<path class="st1" d="M133.17,544.88c-23.69-2.67-49.1-0.69-74.56,5.56v0.18h102.79c-3.37-1.01-6.75-1.94-10.1-2.76
			C145.48,546.59,139.33,545.58,133.17,544.88"/>
		<path class="st1" d="M183.21,534.24c-9-3.57-18.29-6.35-27.8-8.37h-78.7c-6.01,1.17-12.05,2.59-18.1,4.27v7.96
			c25.73-6.04,51.33-7.77,75.88-4.99c6.57,0.74,13.13,1.82,19.49,3.22c6.98,1.71,13.92,3.77,20.75,6.18l0.32,0.12
			c6.45,2.69,12.2,5.14,17.58,7.49c0.4,0.18,0.78,0.34,1.17,0.52h26.1c-7.04-2.95-13.8-5.8-20.4-8.74
			C193.37,539.15,188.04,536.65,183.21,534.24"/>
		<path class="st1" d="M177.61,525.86c2.66,0.92,5.3,1.87,7.91,2.91l0.23,0.1c4.77,2.39,10.06,4.87,16.16,7.59
			c8.18,3.64,16.64,7.17,25.59,10.91c2.57,1.07,5.16,2.15,7.75,3.24h52.04c-17.41-10.26-36.65-18.63-57.2-24.76H177.61z"/>
		<path class="st1" d="M248.83,525.86c17.84,6.62,34.55,14.95,49.76,24.76h27.82c-11.54-9.23-24.65-17.47-39.42-24.76H248.83z"/>
	</g>
</g>
</svg>
